<?xml version="1.0" encoding="UTF-8" standalone="no"?>
<!DOCTYPE svg PUBLIC "-//W3C//DTD SVG 1.1//EN" "http://www.w3.org/Graphics/SVG/1.1/DTD/svg11.dtd">
<svg xmlns="http://www.w3.org/2000/svg" version="1.1" viewBox="0 0 774 449">
<path fill="#d0d0d0" d="
  M 0.00 0.00
  L 774.00 0.00
  L 774.00 449.00
  L 0.00 449.00
  L 0.00 0.00
  Z"
/>
<path stroke="#a4a7ab" stroke-width="2.00" fill="none" stroke-linecap="butt" vector-effect="non-scaling-stroke" d="
  M 384.96 14.50
  L 384.96 435.25"
/>
<path fill="#494f56" d="
  M 384.96 14.50
  L 384.96 435.25
  L 384.62 435.48
  Q 384.32 435.69 383.96 435.69
  L 11.04 435.70
  Q 10.64 435.70 10.64 435.29
  L 10.67 14.98
  Q 10.67 14.56 11.08 14.56
  C 135.68 14.06 260.34 14.28 384.96 14.50
  Z"
/>
<g stroke-width="2.00" fill="none" stroke-linecap="butt">
<path stroke="#bf9e88" vector-effect="non-scaling-stroke" d="
  M 221.29 201.75
  Q 220.71 202.24 220.76 202.76
  Q 222.15 215.26 213.20 223.46"
/>
<path stroke="#947660" vector-effect="non-scaling-stroke" d="
  M 213.20 223.46
  Q 214.36 206.63 199.03 202.31
  Q 198.52 202.17 198.06 202.44
  Q 195.38 204.00 192.78 202.43
  Q 192.32 202.15 191.80 202.30
  Q 176.38 206.83 177.81 223.61"
/>
<path stroke="#bf9e88" vector-effect="non-scaling-stroke" d="
  M 177.81 223.61
  Q 171.72 218.50 170.51 210.99
  Q 170.15 208.75 169.71 201.75"
/>
<path stroke="#646768" vector-effect="non-scaling-stroke" d="
  M 177.81 223.61
  C 181.26 234.91 192.06 240.71 202.94 235.86
  Q 210.47 232.50 213.20 223.46"
/>
<path stroke="#bf9e88" vector-effect="non-scaling-stroke" d="
  M 261.82 276.39
  Q 255.39 302.84 233.58 318.77
  C 233.34 318.95 233.22 319.23 233.21 319.50"
/>
<path stroke="#777a7f" vector-effect="non-scaling-stroke" d="
  M 233.21 319.50
  C 232.67 319.70 232.13 319.68 231.66 319.98
  C 208.99 334.23 181.50 333.94 158.91 319.74
  Q 158.53 319.50 158.07 319.50
  L 157.54 319.50"
/>
<path stroke="#bf9e88" vector-effect="non-scaling-stroke" d="
  M 157.54 319.50
  C 157.57 319.05 157.49 318.79 157.10 318.52
  C 143.15 308.62 133.33 294.38 129.98 277.56
  Q 129.20 273.64 128.33 269.74"
/>
<path stroke="#a78977" vector-effect="non-scaling-stroke" d="
  M 157.54 319.50
  C 157.06 324.82 159.64 331.23 162.13 335.84
  Q 163.28 337.96 163.40 340.01
  Q 163.88 348.66 162.75 357.24"
/>
<path stroke="#a78977" vector-effect="non-scaling-stroke" d="
  M 229.88 359.53
  Q 229.78 348.15 229.61 336.82
  C 229.55 332.57 235.22 322.80 233.21 319.50"
/>
<path stroke="#4c5256" vector-effect="non-scaling-stroke" d="
  M 229.79 388.75
  L 229.47 391.79
  Q 229.42 392.25 228.96 392.25
  L 199.77 392.25
  Q 199.33 392.25 199.30 391.82
  L 198.96 387.50"
/>
<path stroke="#545a62" vector-effect="non-scaling-stroke" d="
  M 198.96 387.50
  L 199.28 355.59
  A 0.64 0.64 0.0 0 0 198.61 354.94
  L 194.63 355.15
  Q 194.02 355.19 194.02 355.80
  L 194.04 387.25"
/>
<path stroke="#4c5256" vector-effect="non-scaling-stroke" d="
  M 194.04 387.25
  L 193.99 391.76
  Q 193.98 392.25 193.49 392.25
  L 164.20 392.25
  Q 163.64 392.25 163.61 391.69
  L 163.46 388.75"
/>
<path stroke="#41474b" vector-effect="non-scaling-stroke" d="
  M 198.96 387.50
  Q 196.48 387.92 194.04 387.25"
/>
</g>
<path fill="#ffffff" d="
  M 384.96 435.25
  L 384.96 14.50
  L 758.73 14.47
  Q 759.25 14.47 759.25 15.00
  L 759.25 434.99
  Q 759.25 435.48 758.76 435.48
  Q 573.53 435.54 388.37 435.49
  C 387.35 435.49 386.03 436.16 384.96 435.25
  Z"
/>
<g stroke-width="2.00" fill="none" stroke-linecap="butt">
<path stroke="#8d9093" vector-effect="non-scaling-stroke" d="
  M 537.75 131.79
  L 537.46 132.25"
/>
<path stroke="#858888" vector-effect="non-scaling-stroke" d="
  M 525.25 132.21
  L 525.00 131.79"
/>
<path stroke="#6c6f73" vector-effect="non-scaling-stroke" d="
  M 577.25 131.12
  L 577.25 132.46"
/>
</g>
<path fill="#ffffff" d="
  M 183.52 67.50
  Q 183.45 75.63 183.51 83.75
  C 183.55 89.59 174.82 89.20 174.94 83.40
  Q 175.35 62.08 175.18 40.75
  C 175.15 37.43 180.94 36.31 182.83 39.35
  C 184.40 41.89 183.49 54.39 183.52 58.00
  Q 183.52 58.50 184.02 58.50
  L 208.47 58.50
  Q 208.95 58.50 208.96 58.02
  C 209.02 54.34 208.09 41.40 209.83 38.98
  C 212.05 35.89 217.23 37.57 217.24 41.74
  Q 217.26 62.16 217.25 82.59
  C 217.25 90.00 209.08 89.56 209.03 83.38
  Q 208.96 75.44 209.01 67.52
  A 0.51 0.51 0.0 0 0 208.50 67.00
  L 184.02 67.00
  Q 183.53 67.00 183.52 67.50
  Z"
/>
<path fill="#494f56" d="
  M 560.27 58.50
  L 584.69 58.50
  Q 585.15 58.50 585.16 58.04
  C 585.33 51.89 584.36 42.02 586.11 39.34
  C 589.14 34.70 593.72 38.68 593.73 43.01
  Q 593.77 62.27 593.75 81.56
  Q 593.75 84.64 593.20 85.87
  C 591.51 89.64 585.33 88.34 585.34 83.25
  Q 585.35 75.40 585.19 67.56
  Q 585.17 66.99 584.61 66.99
  L 560.25 67.00
  Q 559.77 67.01 559.77 67.49
  Q 559.70 76.04 559.76 84.49
  C 559.79 88.78 551.49 90.11 551.49 82.32
  Q 551.51 61.79 551.50 41.25
  C 551.50 36.56 559.78 35.59 559.75 42.25
  Q 559.71 50.12 559.77 58.00
  Q 559.77 58.50 560.27 58.50
  Z"
/>
<rect fill="#ffffff" x="-4.11" y="-12.58" transform="translate(166.62,62.68) rotate(-0.1)" width="8.22" height="25.16" rx="3.97"/>
<rect fill="#ffffff" x="221.57" y="50.10" width="8.40" height="25.28" rx="4.06"/>
<rect fill="#494f56" x="-4.24" y="-12.49" transform="translate(542.99,62.75) rotate(0.2)" width="8.48" height="24.98" rx="4.07"/>
<rect fill="#494f56" x="-4.13" y="-12.50" transform="translate(602.13,62.75) rotate(-0.2)" width="8.26" height="25.00" rx="3.97"/>
<path fill="#ffffff" d="
  M 212.16 112.61
  C 208.99 115.53 210.18 124.08 216.80 122.09
  Q 217.39 121.91 217.25 121.30
  C 216.98 120.10 216.33 116.82 219.02 117.83
  Q 219.50 118.02 219.50 118.53
  L 219.50 122.28
  Q 219.50 123.59 218.21 123.87
  C 202.89 127.14 206.14 105.18 218.65 110.47
  Q 219.29 110.73 218.96 111.34
  L 218.77 111.69
  Q 218.51 112.19 217.95 112.08
  C 216.11 111.71 213.66 111.22 212.16 112.61
  Z"
/>
<path fill="#ffffff" d="
  M 145.72 115.75
  L 150.53 115.75
  A 0.47 0.47 0.0 0 0 151.00 115.28
  L 151.00 110.47
  A 0.47 0.47 0.0 0 1 151.47 110.00
  L 153.03 110.00
  A 0.47 0.47 0.0 0 1 153.50 110.47
  L 153.50 123.53
  A 0.47 0.47 0.0 0 1 153.03 124.00
  L 151.42 124.00
  A 0.47 0.47 0.0 0 1 150.95 123.52
  L 151.11 118.23
  A 0.47 0.47 0.0 0 0 150.64 117.75
  L 145.72 117.75
  A 0.47 0.47 0.0 0 0 145.25 118.22
  L 145.25 123.53
  A 0.47 0.47 0.0 0 1 144.78 124.00
  L 143.47 124.00
  A 0.47 0.47 0.0 0 1 143.00 123.53
  L 143.00 110.47
  A 0.47 0.47 0.0 0 1 143.47 110.00
  L 144.78 110.00
  A 0.47 0.47 0.0 0 1 145.25 110.47
  L 145.25 115.28
  A 0.47 0.47 0.0 0 0 145.72 115.75
  Z"
/>
<path fill="#ffffff" d="
  M 173.01 113.80
  C 180.69 110.35 182.31 125.89 172.99 124.14
  Q 172.50 124.05 172.50 124.55
  L 172.50 127.62
  Q 172.50 128.25 171.88 128.25
  L 170.88 128.25
  Q 170.25 128.25 170.25 127.62
  L 170.25 114.02
  Q 170.25 113.25 170.99 113.47
  L 172.26 113.85
  Q 172.64 113.96 173.01 113.80
  Z"
/>
<path fill="#ffffff" d="
  M 184.01 120.80
  C 185.01 124.19 189.72 120.98 190.04 122.64
  Q 190.14 123.17 189.67 123.42
  C 185.40 125.72 181.65 123.40 181.64 118.71
  C 181.62 107.84 199.19 116.55 184.42 120.10
  Q 183.84 120.24 184.01 120.80
  Z"
/>
<path fill="#ffffff" d="
  M 195.85 116.40
  C 195.69 117.97 196.79 124.93 193.94 123.92
  Q 193.54 123.78 193.53 123.35
  L 193.43 114.14
  Q 193.42 113.73 193.82 113.60
  L 194.10 113.51
  Q 194.39 113.42 194.56 113.67
  C 195.66 115.29 197.52 112.22 199.56 113.85
  C 200.63 114.70 200.63 116.30 199.25 116.88
  Q 198.61 117.15 198.49 116.47
  Q 198.17 114.74 196.45 115.55
  Q 195.91 115.81 195.85 116.40
  Z"
/>
<path fill="#ffffff" d="
  M 245.33 115.08
  C 242.68 115.37 243.81 121.44 243.71 123.38
  Q 243.67 124.00 243.06 124.00
  L 242.04 124.00
  Q 241.57 124.00 241.56 123.53
  L 241.37 116.25
  Q 241.35 115.59 240.74 115.34
  Q 239.16 114.68 237.87 115.76
  Q 237.50 116.07 237.50 116.56
  L 237.50 123.37
  Q 237.50 124.00 236.88 124.00
  L 235.90 124.00
  Q 235.29 124.00 235.28 123.39
  L 235.18 114.01
  Q 235.17 113.33 235.82 113.50
  L 237.36 113.91
  Q 237.76 114.02 238.13 113.83
  Q 240.43 112.62 242.69 113.98
  Q 243.16 114.25 243.63 113.99
  Q 247.10 112.07 249.34 114.79
  Q 249.69 115.23 249.70 115.79
  L 249.85 123.68
  Q 249.86 124.36 249.19 124.24
  L 248.16 124.05
  Q 247.60 123.95 247.57 123.38
  C 247.43 120.83 248.58 114.73 245.33 115.08
  Z"
/>
<path fill="#ffffff" d="
  M 162.98 123.89
  C 156.13 126.36 157.53 117.67 157.49 114.32
  Q 157.48 113.64 158.15 113.57
  L 159.08 113.48
  Q 159.75 113.41 159.75 114.09
  L 159.75 120.82
  Q 159.75 121.42 160.18 121.82
  Q 161.56 123.12 163.28 122.11
  Q 163.73 121.84 163.74 121.31
  L 163.78 114.20
  Q 163.78 113.50 164.48 113.50
  L 165.31 113.50
  Q 166.01 113.50 166.01 114.21
  C 165.98 117.60 166.85 124.49 164.74 126.93
  C 163.40 128.48 156.51 129.06 158.08 126.53
  Q 158.34 126.11 158.81 126.23
  C 160.64 126.66 163.98 126.66 163.64 124.28
  Q 163.55 123.68 162.98 123.89
  Z"
/>
<path fill="#ffffff" d="
  M 227.79 123.94
  C 221.18 126.44 222.48 117.33 222.49 114.22
  Q 222.49 113.01 224.04 113.61
  Q 224.40 113.75 224.42 114.13
  L 224.74 120.91
  Q 224.77 121.45 225.17 121.82
  Q 226.57 123.10 228.30 122.05
  Q 228.75 121.78 228.75 121.26
  L 228.75 114.28
  Q 228.75 113.64 229.39 113.58
  L 230.35 113.48
  Q 230.98 113.42 230.98 114.05
  C 231.06 119.86 233.52 129.36 223.78 128.15
  A 1.77 0.47 74.4 0 1 222.96 126.75
  C 222.78 126.17 230.31 126.99 228.55 124.20
  Q 228.28 123.75 227.79 123.94
  Z"
/>
<path fill="#494f56" d="
  M 175.26 115.08
  C 178.33 117.47 177.04 124.56 172.91 122.01
  Q 172.50 121.75 172.50 121.27
  L 172.50 116.42
  A 1.71 1.70 19.1 0 1 175.26 115.08
  Z"
/>
<path fill="#494f56" d="
  M 187.18 115.09
  A 1.21 1.20 -65.6 0 1 187.96 117.18
  Q 186.41 118.62 184.22 118.39
  Q 183.63 118.33 183.75 117.75
  Q 184.33 115.00 187.18 115.09
  Z"
/>
<path fill="#5f656d" d="
  M 543.81 116.31
  C 543.82 117.31 542.26 116.64 541.97 115.95
  Q 541.78 115.52 542.18 115.27
  C 543.04 114.72 544.66 115.55 543.81 116.31
  Z"
/>
<path fill="#8f8f90" d="
  M 609.75 119.47
  A 4.36 4.36 0.0 0 1 605.39 123.83
  A 4.36 4.36 0.0 0 1 601.03 119.47
  A 4.36 4.36 0.0 0 1 605.39 115.11
  A 4.36 4.36 0.0 0 1 609.75 119.47
  Z"
/>
<path fill="#494f56" d="
  M 509.77 120.74
  L 511.30 122.94
  A 0.45 0.44 78.2 0 1 510.85 123.63
  L 509.97 123.46
  Q 509.43 123.35 509.15 122.87
  Q 508.49 121.73 507.64 120.74
  Q 506.37 119.25 506.74 121.17
  Q 507.00 122.45 506.38 123.57
  A 0.71 0.71 0.0 0 1 505.05 123.24
  L 504.98 115.81
  Q 504.97 115.07 505.70 115.15
  L 509.38 115.53
  Q 509.96 115.59 510.27 116.09
  Q 511.53 118.12 509.85 119.83
  Q 509.43 120.25 509.77 120.74
  Z"
/>
<path fill="#494f56" d="
  M 514.25 121.07
  A 0.96 0.96 0.0 0 0 515.19 122.25
  L 517.36 122.25
  Q 517.98 122.25 518.02 122.87
  Q 518.05 123.39 517.17 123.58
  Q 516.82 123.65 516.47 123.63
  Q 514.91 123.51 513.33 123.58
  Q 512.75 123.60 512.75 123.03
  L 512.75 115.75
  Q 512.75 115.25 513.25 115.25
  L 517.25 115.25
  Q 517.75 115.25 517.75 115.75
  L 517.75 116.13
  Q 517.75 116.75 517.12 116.75
  L 514.88 116.75
  Q 514.25 116.75 514.25 117.38
  L 514.25 118.12
  Q 514.25 118.75 514.88 118.75
  L 516.74 118.75
  Q 517.87 118.75 517.07 119.56
  L 516.81 119.82
  Q 516.47 120.16 516.01 120.03
  Q 514.57 119.63 514.25 121.07
  Z"
/>
<rect fill="#d0d0d0" x="-0.84" y="-4.19" transform="translate(528.67,119.49) rotate(1.1)" width="1.68" height="8.38" rx="0.59"/>
<path fill="#d0d0d0" d="
  M 534.83 121.10
  Q 534.07 120.11 532.75 119.80
  Q 532.32 119.70 532.01 119.38
  C 529.50 116.73 533.66 113.68 535.82 116.08
  Q 536.43 116.75 535.52 116.75
  L 533.71 116.75
  Q 533.05 116.75 533.02 117.40
  C 532.91 119.26 536.30 118.20 536.45 120.91
  C 536.62 123.92 533.23 124.32 531.20 122.86
  Q 530.66 122.47 531.13 122.00
  L 531.33 121.80
  Q 531.55 121.58 531.81 121.74
  Q 533.04 122.51 534.49 122.11
  Q 535.40 121.86 534.83 121.10
  Z"
/>
<path fill="#494f56" d="
  M 546.73 120.91
  A 0.90 0.90 0.0 0 0 547.51 122.25
  L 549.99 122.25
  Q 550.51 122.25 550.50 122.77
  Q 550.50 122.96 550.51 123.16
  Q 550.53 123.75 549.93 123.73
  L 545.88 123.54
  Q 545.25 123.52 545.25 122.88
  L 545.25 115.86
  Q 545.25 115.22 545.89 115.23
  L 550.39 115.30
  Q 551.94 115.32 550.69 116.24
  Q 549.45 117.14 547.84 116.66
  Q 547.33 116.51 547.11 117.00
  L 546.75 117.84
  Q 546.36 118.75 547.35 118.75
  L 549.33 118.75
  Q 549.95 118.75 549.76 119.34
  L 549.63 119.76
  Q 549.51 120.14 549.12 120.02
  Q 547.50 119.54 546.73 120.91
  Z"
/>
<path fill="#494f56" d="
  M 553.83 120.89
  C 553.39 121.62 554.36 123.42 552.99 123.72
  A 0.81 0.81 0.0 0 1 552.01 122.93
  L 552.00 115.94
  Q 551.99 115.11 552.82 115.18
  L 556.08 115.49
  Q 556.71 115.55 557.09 116.07
  Q 558.70 118.30 556.66 119.95
  Q 556.18 120.34 556.58 120.80
  L 558.16 122.65
  Q 558.64 123.21 557.98 123.52
  L 557.56 123.72
  Q 557.09 123.94 556.77 123.53
  L 554.62 120.84
  Q 554.19 120.30 553.83 120.89
  Z"
/>
<path fill="#8f8f90" d="
  M 595.65 123.04
  L 595.68 115.78
  Q 595.68 115.25 596.21 115.25
  L 597.00 115.25
  Q 597.50 115.25 597.50 115.75
  L 597.50 121.30
  Q 597.50 121.90 598.09 121.99
  C 598.95 122.12 600.72 121.65 600.78 123.09
  Q 600.81 123.75 600.15 123.74
  L 596.28 123.68
  Q 595.64 123.67 595.65 123.04
  Z"
/>
<path fill="#8f8f90" d="
  M 615.94 123.73
  C 608.73 124.81 608.78 113.60 616.58 115.43
  Q 617.82 115.72 617.79 116.78
  Q 617.78 117.35 617.22 117.24
  L 615.26 116.83
  Q 614.77 116.72 614.29 116.91
  C 610.92 118.23 612.54 122.81 615.85 122.25
  C 616.28 122.18 616.60 121.97 616.50 121.50
  Q 616.41 121.09 616.00 120.99
  Q 615.29 120.81 615.04 120.10
  Q 614.79 119.37 615.56 119.32
  L 617.07 119.23
  Q 617.54 119.20 617.77 119.61
  C 618.94 121.63 618.40 123.36 615.94 123.73
  Z"
/>
<rect fill="#8f8f90" x="619.51" y="115.24" width="1.74" height="8.42" rx="0.56"/>
<path fill="#8f8f90" d="
  M 625.11 119.17
  L 624.63 123.35
  A 0.66 0.66 0.0 0 1 623.31 123.28
  L 623.22 116.04
  A 0.84 0.84 0.0 0 1 624.71 115.50
  L 628.14 119.67
  Q 628.61 120.24 628.70 119.50
  C 628.82 118.47 628.05 114.57 630.05 115.30
  Q 630.50 115.46 630.50 115.93
  L 630.50 122.78
  A 0.92 0.92 0.0 0 1 628.84 123.34
  L 625.59 119.04
  Q 625.19 118.50 625.11 119.17
  Z"
/>
<path fill="#8f8f90" d="
  M 519.76 116.59
  A 0.34 0.34 0.0 0 1 520.33 116.88
  L 519.90 120.21
  Q 519.74 121.41 519.18 120.33
  Q 518.10 118.22 519.76 116.59
  Z"
/>
<path fill="#ffffff" d="
  M 507.15 116.62
  C 509.98 116.64 509.31 119.54 507.29 118.96
  Q 506.75 118.81 506.75 118.24
  L 506.75 117.02
  A 0.40 0.40 0.0 0 1 507.15 116.62
  Z"
/>
<path fill="#ffffff" d="
  M 555.74 118.70
  A 0.95 0.95 0.0 0 1 554.18 119.03
  Q 553.41 118.27 553.80 117.01
  Q 553.95 116.51 554.47 116.55
  Q 556.50 116.71 555.74 118.70
  Z"
/>
<circle fill="#ffffff" cx="605.39" cy="119.52" r="2.53"/>
<path fill="#d0d0d0" d="
  M 537.75 131.79
  L 537.46 132.25
  Q 531.35 132.83 525.25 132.21
  L 525.00 131.79
  Q 531.33 129.56 537.75 131.79
  Z"
/>
<path fill="#393f3f" d="
  M 525.00 131.79
  L 525.25 132.21
  C 521.43 132.34 492.47 133.31 491.19 132.01
  A 0.38 0.37 66.7 0 1 491.44 131.37
  Q 505.73 130.86 519.93 131.01
  Q 522.53 131.03 525.00 131.79
  Z"
/>
<path fill="#494f56" d="
  M 577.25 131.12
  L 577.25 132.46
  Q 557.35 132.88 537.46 132.25
  L 537.75 131.79
  C 538.71 131.49 539.34 131.19 540.37 131.17
  Q 558.81 130.82 577.25 131.12
  Z"
/>
<path fill="#8f8f90" d="
  M 577.25 132.46
  L 577.25 131.12
  L 653.10 131.03
  A 0.66 0.66 0.0 0 1 653.74 131.54
  C 653.89 132.20 653.52 132.53 652.88 132.54
  Q 615.06 132.83 577.25 132.46
  Z"
/>
<path fill="#eeac80" d="
  M 221.29 201.75
  Q 220.71 202.24 220.76 202.76
  Q 222.15 215.26 213.20 223.46
  Q 214.36 206.63 199.03 202.31
  Q 198.52 202.17 198.06 202.44
  Q 195.38 204.00 192.78 202.43
  Q 192.32 202.15 191.80 202.30
  Q 176.38 206.83 177.81 223.61
  Q 171.72 218.50 170.51 210.99
  Q 170.15 208.75 169.71 201.75
  Q 170.23 200.95 169.96 200.21
  Q 169.77 199.70 169.24 199.65
  C 166.60 199.39 164.37 197.69 164.29 194.90
  Q 164.15 190.61 169.79 188.81
  A 0.63 0.63 0.0 0 0 170.21 188.15
  Q 168.77 175.02 176.50 166.51
  C 190.77 150.81 216.09 157.80 220.38 178.43
  C 221.01 181.48 220.67 185.32 220.90 188.77
  Q 220.94 189.33 221.50 189.35
  C 228.36 189.60 228.74 198.85 221.37 199.70
  Q 220.80 199.76 220.84 200.33
  Q 220.89 201.07 221.29 201.75
  Z"
/>
<path fill="#8f8f90" d="
  M 457.89 175.19
  L 458.84 175.12
  Q 459.50 175.07 459.50 174.41
  L 459.50 169.58
  Q 459.50 169.06 460.02 169.05
  C 461.54 169.01 461.99 176.59 458.01 176.51
  C 454.54 176.43 455.46 171.50 455.47 169.34
  Q 455.48 168.67 456.05 169.01
  L 456.49 169.28
  Q 456.87 169.50 456.89 169.94
  L 457.06 174.44
  Q 457.09 175.25 457.89 175.19
  Z"
/>
<path fill="#8f8f90" d="
  M 462.25 172.97
  Q 461.51 171.80 462.71 171.12
  Q 464.52 170.10 466.19 171.63
  Q 467.81 173.10 465.89 172.05
  Q 464.38 171.23 463.47 172.21
  Q 462.79 172.93 463.78 173.01
  Q 465.36 173.12 465.78 174.52
  Q 465.95 175.09 465.57 175.55
  Q 464.22 177.17 462.30 176.10
  Q 461.61 175.71 462.30 175.34
  Q 462.70 175.12 463.22 175.33
  Q 463.86 175.58 463.96 174.89
  L 464.00 174.57
  Q 464.05 174.18 463.69 174.05
  Q 462.73 173.72 462.25 172.97
  Z"
/>
<path fill="#8f8f90" d="
  M 468.24 174.21
  L 468.08 174.68
  Q 467.89 175.25 468.49 175.25
  L 470.49 175.25
  Q 471.92 175.25 470.69 175.97
  C 465.91 178.77 465.41 169.32 470.36 170.99
  Q 472.18 171.60 470.99 173.12
  Q 470.11 174.25 468.65 173.97
  Q 468.34 173.91 468.24 174.21
  Z"
/>
<path fill="#8f8f90" d="
  M 495.03 171.77
  L 494.18 171.77
  Q 493.41 171.77 493.62 172.51
  Q 494.10 174.17 493.89 175.82
  Q 493.77 176.74 493.19 176.01
  C 492.21 174.78 493.48 172.30 492.01 171.88
  Q 491.42 171.71 491.14 172.26
  Q 490.33 173.85 491.08 175.63
  A 0.46 0.46 0.0 0 1 490.59 176.27
  L 490.11 176.21
  Q 489.75 176.16 489.75 175.80
  L 489.75 171.51
  Q 489.75 170.95 490.31 170.96
  L 496.06 171.05
  Q 496.80 171.06 496.84 171.80
  L 497.04 175.51
  Q 497.07 176.13 496.45 176.09
  C 495.63 176.03 495.78 172.80 495.75 172.44
  Q 495.70 171.77 495.03 171.77
  Z"
/>
<path fill="#8f8f90" d="
  M 499.96 175.08
  L 500.31 175.44
  Q 500.61 175.73 500.97 175.52
  Q 501.76 175.07 502.70 175.29
  Q 503.53 175.48 502.79 175.90
  C 499.10 177.93 497.09 173.94 499.65 171.19
  A 1.63 1.63 0.0 0 1 501.81 170.98
  Q 503.20 172.00 502.47 173.10
  Q 502.16 173.56 501.62 173.73
  L 500.18 174.19
  Q 499.33 174.45 499.96 175.08
  Z"
/>
<path fill="#8f8f90" d="
  M 474.05 172.35
  C 473.83 173.19 474.07 176.16 473.41 176.28
  Q 472.81 176.39 472.80 175.77
  L 472.73 171.77
  Q 472.72 171.00 473.48 171.00
  L 475.18 171.00
  Q 475.79 171.00 475.91 171.60
  L 476.01 172.09
  Q 476.16 172.87 475.46 172.50
  L 474.68 172.08
  Q 474.20 171.82 474.05 172.35
  Z"
/>
<path fill="#8f8f90" d="
  M 479.70 171.87
  C 478.06 171.84 478.56 175.17 478.29 176.30
  A 0.48 0.48 0.0 0 1 477.34 176.20
  L 477.21 171.65
  Q 477.20 171.00 477.85 171.00
  L 480.93 171.00
  Q 481.61 171.00 481.66 171.67
  L 481.98 175.59
  Q 482.05 176.52 481.15 176.28
  C 480.04 176.00 480.61 173.48 480.41 172.47
  Q 480.29 171.89 479.70 171.87
  Z"
/>
<path fill="#8f8f90" d="
  M 483.83 175.77
  C 482.13 173.24 483.76 169.87 487.18 171.17
  Q 487.66 171.35 487.69 171.86
  L 487.90 175.66
  Q 487.93 176.25 487.35 176.25
  L 484.74 176.25
  Q 484.16 176.25 483.83 175.77
  Z"
/>
<path fill="#ffffff" d="
  M 469.30 172.14
  Q 470.26 173.93 468.45 173.14
  Q 467.39 172.68 468.44 172.19
  L 468.87 171.99
  Q 469.15 171.86 469.30 172.14
  Z"
/>
<path fill="#ffffff" d="
  M 484.38 172.97
  A 0.31 0.30 60.0 0 1 484.43 172.77
  Q 484.70 172.35 485.10 172.08
  A 0.68 0.67 -28.6 0 1 486.10 172.37
  Q 487.24 175.05 485.23 175.32
  Q 484.50 175.41 484.47 174.69
  L 484.38 172.97
  Z"
/>
<path fill="#ffffff" d="
  M 499.99 172.23
  C 500.28 171.47 501.17 171.71 501.61 172.07
  A 0.44 0.44 0.0 0 1 501.62 172.74
  C 501.11 173.22 499.24 173.49 499.80 172.58
  Q 499.95 172.34 499.99 172.23
  Z"
/>
<path fill="#8f8f90" d="
  M 169.71 201.75
  Q 170.15 208.75 170.51 210.99
  Q 171.72 218.50 177.81 223.61
  C 181.26 234.91 192.06 240.71 202.94 235.86
  Q 210.47 232.50 213.20 223.46
  Q 222.15 215.26 220.76 202.76
  Q 220.71 202.24 221.29 201.75
  Q 222.38 201.97 223.36 202.45
  Q 257.93 219.60 262.51 258.24
  Q 263.19 264.00 261.82 276.39
  Q 255.39 302.84 233.58 318.77
  C 233.34 318.95 233.22 319.23 233.21 319.50
  C 232.67 319.70 232.13 319.68 231.66 319.98
  C 208.99 334.23 181.50 333.94 158.91 319.74
  Q 158.53 319.50 158.07 319.50
  L 157.54 319.50
  C 157.57 319.05 157.49 318.79 157.10 318.52
  C 143.15 308.62 133.33 294.38 129.98 277.56
  Q 129.20 273.64 128.33 269.74
  C 126.66 239.87 141.46 214.56 168.57 201.81
  Q 168.85 201.68 169.71 201.75
  Z"
/>
<path fill="#393f3f" d="
  M 213.20 223.46
  Q 210.47 232.50 202.94 235.86
  C 192.06 240.71 181.26 234.91 177.81 223.61
  Q 176.38 206.83 191.80 202.30
  Q 192.32 202.15 192.78 202.43
  Q 195.38 204.00 198.06 202.44
  Q 198.52 202.17 199.03 202.31
  Q 214.36 206.63 213.20 223.46
  Z"
/>
<path fill="#8f8f90" d="
  M 498.50 217.48
  L 498.50 216.37
  Q 498.50 215.54 499.22 215.97
  L 499.51 216.14
  Q 499.68 216.24 499.69 216.44
  L 499.89 222.98
  Q 499.90 223.36 499.52 223.37
  L 496.87 223.43
  Q 496.40 223.44 496.06 223.13
  C 494.22 221.45 495.25 218.03 498.04 217.95
  Q 498.50 217.94 498.50 217.48
  Z"
/>
<path fill="#8f8f90" d="
  M 455.89 223.23
  C 455.54 220.93 455.97 218.97 456.00 216.80
  Q 456.01 216.51 456.28 216.42
  C 460.98 214.75 461.93 221.24 457.49 221.04
  Q 456.88 221.01 457.00 221.61
  Q 457.20 222.64 456.62 223.42
  Q 456.03 224.19 455.89 223.23
  Z"
/>
<rect fill="#ffffff" x="-1.00" y="-1.44" transform="translate(457.97,218.58) rotate(1.6)" width="2.00" height="2.88" rx="0.88"/>
<path fill="#8f8f90" d="
  M 461.95 223.10
  C 459.77 220.84 461.77 216.75 465.13 218.27
  Q 465.65 218.50 465.68 219.07
  L 465.89 222.69
  Q 465.92 223.29 465.32 223.33
  L 462.89 223.47
  Q 462.33 223.50 461.95 223.10
  Z"
/>
<path fill="#8f8f90" d="
  M 469.49 221.52
  L 467.79 220.64
  A 1.12 1.11 33.1 0 1 467.43 218.96
  Q 468.67 217.39 470.69 218.31
  Q 471.81 218.82 470.58 218.91
  L 468.93 219.04
  Q 468.24 219.09 468.59 219.69
  C 469.17 220.68 471.25 220.67 470.82 222.29
  C 470.39 223.93 468.46 224.00 467.26 223.21
  Q 466.34 222.60 467.44 222.54
  L 469.30 222.42
  Q 471.01 222.32 469.49 221.52
  Z"
/>
<path fill="#8f8f90" d="
  M 473.24 219.92
  Q 474.70 220.47 475.48 221.81
  Q 475.83 222.41 475.31 222.86
  Q 474.17 223.85 472.59 223.43
  Q 472.26 223.34 472.25 222.99
  Q 472.25 222.85 472.25 222.71
  Q 472.25 222.41 472.54 222.47
  L 473.65 222.69
  Q 474.26 222.81 474.25 222.19
  Q 474.25 222.04 474.25 221.88
  Q 474.24 221.50 473.90 221.33
  L 472.46 220.60
  Q 471.90 220.31 471.95 219.68
  C 472.05 218.44 474.01 217.36 475.08 218.31
  Q 475.49 218.68 474.95 218.78
  L 473.31 219.09
  Q 471.80 219.37 473.24 219.92
  Z"
/>
<path fill="#8f8f90" d="
  M 486.8560 223.5918
  A 2.79 2.43 94.4 0 1 484.6472 220.6236
  A 2.79 2.43 94.4 0 1 487.2840 218.0282
  A 2.79 2.43 94.4 0 1 489.4928 220.9964
  A 2.79 2.43 94.4 0 1 486.8560 223.5918
  Z"
/>
<path fill="#8f8f90" d="
  M 479.04 221.19
  Q 479.73 220.01 479.33 218.72
  Q 479.19 218.25 479.67 218.25
  Q 479.80 218.25 479.93 218.25
  Q 480.26 218.25 480.36 218.57
  L 480.98 220.61
  Q 481.17 221.23 480.61 221.55
  Q 479.57 222.13 479.12 223.22
  Q 478.73 224.17 478.25 223.26
  Q 477.08 221.01 476.55 218.51
  A 0.43 0.42 -60.0 0 1 477.37 218.29
  L 478.29 221.11
  Q 478.58 221.98 479.04 221.19
  Z"
/>
<path fill="#8f8f90" d="
  M 481.02 221.94
  C 481.79 221.06 482.43 218.27 483.33 218.23
  Q 484.01 218.20 483.76 218.84
  L 482.02 223.26
  Q 481.62 224.28 481.15 223.29
  L 480.91 222.78
  Q 480.69 222.32 481.02 221.94
  Z"
/>
<path fill="#8f8f90" d="
  M 492.25 219.73
  L 492.25 223.00
  Q 492.25 223.51 491.74 223.50
  Q 491.58 223.50 491.40 223.50
  Q 491.09 223.50 491.08 223.19
  L 490.96 219.07
  Q 490.95 218.53 491.46 218.38
  Q 493.16 217.87 494.56 218.71
  Q 495.36 219.20 494.46 219.44
  Q 493.61 219.67 492.89 219.33
  Q 492.25 219.03 492.25 219.73
  Z"
/>
<ellipse fill="#ffffff" cx="0.00" cy="0.00" transform="translate(463.53,220.78) rotate(98.1)" rx="1.76" ry="1.06"/>
<rect fill="#ffffff" x="-1.12" y="-1.75" transform="translate(487.09,220.78) rotate(1.0)" width="2.24" height="3.50" rx="1.02"/>
<path fill="#ffffff" d="
  M 497.36 219.14
  A 0.75 0.74 69.4 0 1 498.61 219.71
  L 498.55 222.12
  Q 498.50 224.30 497.13 222.60
  Q 495.62 220.73 497.36 219.14
  Z"
/>
<path fill="#eeac80" d="
  M 199.72 219.93
  A 1.07 1.06 -2.4 0 1 200.38 220.53
  C 200.95 221.93 200.18 222.62 198.81 222.46
  Q 194.99 221.98 191.18 222.50
  Q 190.56 222.59 190.44 221.97
  L 190.22 220.75
  Q 190.09 220.08 190.75 219.89
  Q 195.26 218.60 199.72 219.93
  Z"
/>
<path fill="#5f656d" d="
  M 704.74 284.20
  A 0.80 0.80 0.0 0 1 703.94 285.00
  L 441.30 285.00
  A 0.80 0.80 0.0 0 1 440.50 284.20
  L 440.50 254.30
  A 0.80 0.80 0.0 0 1 441.30 253.50
  L 703.94 253.50
  A 0.80 0.80 0.0 0 1 704.74 254.30
  L 704.74 284.20
  Z"
/>
<path fill="#ffffff" d="
  M 551.73 271.39
  A 0.57 0.57 0.0 0 0 552.36 271.93
  Q 553.84 271.77 555.00 272.55
  Q 555.94 273.17 554.82 273.21
  L 550.64 273.34
  Q 550.04 273.36 550.02 272.76
  C 549.97 271.30 549.50 265.59 550.85 264.90
  A 0.42 0.41 74.7 0 1 551.46 265.25
  L 551.73 271.39
  Z"
/>
<path fill="#ffffff" d="
  M 563.86 269.25
  A 4.23 4.23 0.0 0 1 559.63 273.48
  A 4.23 4.23 0.0 0 1 555.40 269.25
  A 4.23 4.23 0.0 0 1 559.63 265.02
  A 4.23 4.23 0.0 0 1 563.86 269.25
  Z"
/>
<path fill="#ffffff" d="
  M 571.77 272.81
  C 567.69 275.15 562.92 270.87 565.72 266.73
  C 566.70 265.29 571.75 263.79 571.93 266.29
  Q 571.98 267.00 571.30 266.81
  C 562.84 264.56 568.03 275.51 570.69 271.36
  Q 571.04 270.80 570.41 270.61
  Q 569.77 270.42 569.49 269.84
  Q 569.12 269.06 569.98 269.09
  L 571.58 269.14
  Q 572.25 269.16 572.25 269.83
  L 572.25 271.97
  Q 572.25 272.53 571.77 272.81
  Z"
/>
<rect fill="#ffffff" x="-0.79" y="-4.15" transform="translate(574.72,269.22) rotate(0.1)" width="1.58" height="8.30" rx="0.67"/>
<path fill="#ffffff" d="
  M 582.28 269.54
  A 0.54 0.54 0.0 0 0 583.24 269.20
  L 583.26 265.49
  Q 583.27 264.55 584.07 265.03
  L 584.32 265.17
  Q 584.50 265.28 584.50 265.50
  L 584.49 273.15
  A 0.53 0.52 26.0 0 1 583.55 273.47
  L 579.62 268.50
  A 0.33 0.33 0.0 0 0 579.04 268.70
  L 578.92 272.96
  A 0.70 0.70 0.0 0 1 577.52 272.93
  L 577.57 265.53
  A 0.63 0.63 0.0 0 1 578.69 265.14
  L 582.28 269.54
  Z"
/>
<ellipse fill="#5f656d" cx="0.00" cy="0.00" transform="translate(559.61,269.25) rotate(91.1)" rx="2.81" ry="2.50"/>
<path fill="#eeac80" d="
  M 128.33 269.74
  Q 129.20 273.64 129.98 277.56
  C 133.33 294.38 143.15 308.62 157.10 318.52
  C 157.49 318.79 157.57 319.05 157.54 319.50
  C 157.06 324.82 159.64 331.23 162.13 335.84
  Q 163.28 337.96 163.40 340.01
  Q 163.88 348.66 162.75 357.24
  C 155.76 366.71 137.74 369.52 130.99 358.23
  Q 129.40 355.58 129.08 349.83
  Q 126.85 309.81 128.33 269.74
  Z"
/>
<path fill="#eeac80" d="
  M 261.82 276.39
  Q 262.13 310.12 262.03 343.61
  C 262.00 354.08 262.56 360.67 252.20 364.19
  Q 239.67 368.44 229.88 359.53
  Q 229.78 348.15 229.61 336.82
  C 229.55 332.57 235.22 322.80 233.21 319.50
  C 233.22 319.23 233.34 318.95 233.58 318.77
  Q 255.39 302.84 261.82 276.39
  Z"
/>
<path fill="#8f8f90" d="
  M 606.40 299.12
  L 606.70 297.80
  Q 606.83 297.23 607.41 297.36
  C 608.23 297.54 608.08 303.56 608.12 304.59
  Q 608.13 305.02 607.71 305.02
  L 604.67 304.99
  Q 604.14 304.99 603.84 304.56
  C 602.82 303.11 603.03 298.94 605.66 299.58
  Q 606.26 299.72 606.40 299.12
  Z"
/>
<path fill="#8f8f90" d="
  M 529.78 302.47
  L 529.74 304.41
  Q 529.72 305.05 529.09 305.00
  L 528.74 304.97
  Q 528.23 304.93 528.26 304.43
  L 528.59 298.28
  Q 528.62 297.66 529.23 297.70
  L 532.36 297.90
  Q 533.68 297.98 532.55 298.67
  Q 531.57 299.26 530.35 298.93
  Q 529.77 298.78 529.77 299.38
  L 529.77 300.48
  Q 529.77 301.00 530.29 301.00
  L 531.40 301.00
  Q 532.44 301.00 531.79 301.82
  Q 531.22 302.54 530.60 302.07
  Q 529.80 301.46 529.78 302.47
  Z"
/>
<path fill="#8f8f90" d="
  M 614.72 299.06
  L 613.09 299.06
  Q 612.47 299.06 612.62 298.47
  C 612.85 297.53 614.70 297.68 615.35 297.85
  A 1.69 1.69 0.0 0 1 616.21 300.59
  L 613.97 303.19
  Q 612.95 304.37 613.30 302.85
  Q 613.69 301.14 615.05 299.92
  A 0.49 0.49 0.0 0 0 614.72 299.06
  Z"
/>
<path fill="#8f8f90" d="
  M 558.38 304.05
  Q 558.59 304.17 558.73 304.38
  Q 559.18 305.02 558.40 305.01
  L 556.96 304.98
  Q 556.29 304.97 556.23 304.30
  C 556.06 302.58 555.03 299.89 556.57 298.68
  Q 557.24 298.14 557.36 299.00
  Q 557.48 299.88 558.43 300.05
  Q 560.61 300.44 558.39 300.93
  Q 556.53 301.34 557.79 303.48
  Q 558.01 303.85 558.38 304.05
  Z"
/>
<path fill="#8f8f90" d="
  M 535.4184 305.1147
  A 2.79 2.46 96.0 0 1 533.2635 302.0829
  A 2.79 2.46 96.0 0 1 536.0016 299.5653
  A 2.79 2.46 96.0 0 1 538.1565 302.5971
  A 2.79 2.46 96.0 0 1 535.4184 305.1147
  Z"
/>
<path fill="#8f8f90" d="
  M 541.01 301.14
  C 541.00 302.01 541.35 304.64 540.35 304.96
  Q 539.85 305.13 539.82 304.61
  L 539.58 300.41
  Q 539.55 299.86 540.09 299.80
  L 542.01 299.57
  Q 542.59 299.50 542.86 300.01
  Q 543.14 300.51 542.96 301.09
  Q 542.77 301.72 542.26 301.30
  L 541.68 300.83
  Q 541.02 300.29 541.01 301.14
  Z"
/>
<path fill="#8f8f90" d="
  M 546.68 305.06
  Q 546.08 304.94 545.44 305.02
  Q 544.91 305.08 544.57 304.67
  C 542.83 302.57 543.89 299.86 546.90 299.37
  A 1.36 1.36 0.0 0 1 548.48 300.64
  C 548.59 302.86 549.03 309.19 544.41 306.86
  Q 543.98 306.65 544.32 306.31
  L 544.54 306.08
  Q 544.66 305.97 544.82 305.98
  Q 545.76 306.06 546.69 305.94
  Q 549.52 305.60 546.68 305.06
  Z"
/>
<path fill="#8f8f90" d="
  M 551.7364 305.1493
  A 2.86 2.48 96.9 0 1 549.6180 302.0121
  A 2.86 2.48 96.9 0 1 552.4236 299.4707
  A 2.86 2.48 96.9 0 1 554.5420 302.6079
  A 2.86 2.48 96.9 0 1 551.7364 305.1493
  Z"
/>
<path fill="#8f8f90" d="
  M 567.16 300.00
  Q 568.85 302.17 567.28 304.60
  Q 566.98 305.06 566.44 305.00
  Q 564.54 304.78 564.64 306.75
  Q 564.68 307.44 564.02 307.25
  C 563.22 307.03 563.47 301.32 563.41 300.23
  Q 563.39 299.87 563.75 299.82
  L 565.98 299.52
  Q 566.71 299.42 567.16 300.00
  Z"
/>
<path fill="#8f8f90" d="
  M 571.30 305.00
  Q 569.83 305.00 569.43 303.58
  Q 568.44 299.98 571.72 299.49
  A 1.74 1.73 -5.1 0 1 573.72 301.16
  L 573.81 304.50
  Q 573.82 305.00 573.32 305.00
  L 571.30 305.00
  Z"
/>
<path fill="#8f8f90" d="
  M 576.72 301.31
  C 577.18 301.92 578.23 302.17 578.58 302.73
  C 579.89 304.84 576.57 305.33 575.39 304.85
  Q 574.70 304.56 575.38 304.27
  Q 576.14 303.94 576.98 304.31
  Q 577.83 304.68 577.76 303.75
  Q 577.75 303.60 577.75 303.46
  Q 577.76 303.10 577.41 303.02
  Q 575.89 302.67 575.21 301.33
  Q 574.95 300.80 575.33 300.35
  C 575.95 299.62 578.40 298.83 578.72 300.20
  Q 578.85 300.75 578.28 300.75
  L 576.99 300.75
  Q 576.29 300.75 576.72 301.31
  Z"
/>
<path fill="#8f8f90" d="
  M 581.25 301.28
  L 581.40 301.52
  Q 581.52 301.73 581.75 301.77
  Q 583.27 302.07 583.54 303.56
  Q 583.65 304.16 583.15 304.50
  Q 581.98 305.30 580.48 304.96
  Q 579.67 304.77 580.33 304.27
  Q 581.12 303.66 582.10 304.59
  Q 583.41 305.83 582.68 304.19
  Q 582.08 302.83 580.78 302.37
  Q 580.25 302.19 580.08 301.65
  C 579.46 299.69 581.93 299.09 583.18 299.91
  Q 584.14 300.55 582.99 300.66
  L 581.49 300.81
  Q 581.00 300.86 581.25 301.28
  Z"
/>
<path fill="#8f8f90" d="
  M 588.12 303.46
  L 587.17 304.66
  Q 586.89 305.01 586.44 304.98
  C 585.80 304.94 584.81 301.28 584.51 300.56
  Q 584.36 300.19 584.68 299.95
  L 584.95 299.75
  Q 585.38 299.44 585.55 299.94
  L 586.33 302.32
  Q 586.59 303.13 586.97 302.37
  Q 587.44 301.43 587.19 300.28
  Q 587.13 300.00 587.33 299.79
  L 587.60 299.52
  Q 588.07 299.06 588.27 299.68
  L 589.20 302.62
  Q 589.26 302.80 589.45 302.77
  C 589.65 302.74 590.51 300.19 590.87 299.73
  Q 591.28 299.20 591.63 299.76
  C 592.07 300.47 590.74 303.09 590.19 304.67
  Q 590.06 305.05 589.66 305.00
  L 589.34 304.96
  Q 588.75 304.88 588.75 304.28
  L 588.75 303.69
  Q 588.75 302.67 588.12 303.46
  Z"
/>
<path fill="#8f8f90" d="
  M 594.8805 305.1623
  A 2.86 2.48 94.2 0 1 592.6167 302.1284
  A 2.86 2.48 94.2 0 1 595.2995 299.4577
  A 2.86 2.48 94.2 0 1 597.5633 302.4916
  A 2.86 2.48 94.2 0 1 594.8805 305.1623
  Z"
/>
<path fill="#8f8f90" d="
  M 600.25 301.42
  L 600.25 304.23
  Q 600.25 304.77 599.72 304.85
  C 598.61 305.02 599.00 301.18 599.00 300.43
  Q 598.99 299.78 599.64 299.76
  L 601.61 299.71
  Q 602.15 299.70 602.34 300.20
  L 602.50 300.62
  Q 602.89 301.64 601.85 301.31
  L 600.83 300.99
  Q 600.25 300.81 600.25 301.42
  Z"
/>
<ellipse fill="#ffffff" cx="0.00" cy="0.00" transform="translate(535.69,302.32) rotate(86.5)" rx="1.72" ry="1.22"/>
<ellipse fill="#ffffff" cx="0.00" cy="0.00" transform="translate(546.28,302.30) rotate(93.6)" rx="1.74" ry="1.05"/>
<ellipse fill="#ffffff" cx="0.00" cy="0.00" transform="translate(565.70,302.32) rotate(90.1)" rx="1.82" ry="1.07"/>
<ellipse fill="#ffffff" cx="0.00" cy="0.00" transform="translate(571.47,302.28) rotate(99.2)" rx="1.80" ry="1.05"/>
<ellipse fill="#ffffff" cx="0.00" cy="0.00" transform="translate(605.54,302.28) rotate(96.8)" rx="1.77" ry="1.06"/>
<ellipse fill="#ffffff" cx="0.00" cy="0.00" transform="translate(552.11,302.38) rotate(86.1)" rx="1.67" ry="1.16"/>
<ellipse fill="#ffffff" cx="0.00" cy="0.00" transform="translate(595.07,302.34) rotate(93.1)" rx="1.69" ry="1.17"/>
<path fill="#d0d0d0" d="
  M 613.57 304.94
  Q 612.74 303.57 614.59 304.12
  Q 615.58 304.41 614.63 304.82
  Q 614.33 304.95 614.02 305.08
  Q 613.73 305.21 613.57 304.94
  Z"
/>
<path fill="#5f656d" d="
  M 157.54 319.50
  L 158.07 319.50
  Q 158.53 319.50 158.91 319.74
  C 181.50 333.94 208.99 334.23 231.66 319.98
  C 232.13 319.68 232.67 319.70 233.21 319.50
  C 235.22 322.80 229.55 332.57 229.61 336.82
  Q 229.78 348.15 229.88 359.53
  C 229.75 369.29 229.81 378.98 229.79 388.75
  L 229.47 391.79
  Q 229.42 392.25 228.96 392.25
  L 199.77 392.25
  Q 199.33 392.25 199.30 391.82
  L 198.96 387.50
  L 199.28 355.59
  A 0.64 0.64 0.0 0 0 198.61 354.94
  L 194.63 355.15
  Q 194.02 355.19 194.02 355.80
  L 194.04 387.25
  L 193.99 391.76
  Q 193.98 392.25 193.49 392.25
  L 164.20 392.25
  Q 163.64 392.25 163.61 391.69
  L 163.46 388.75
  C 163.49 385.12 164.25 358.36 162.75 357.24
  Q 163.88 348.66 163.40 340.01
  Q 163.28 337.96 162.13 335.84
  C 159.64 331.23 157.06 324.82 157.54 319.50
  Z"
/>
<path fill="#494f56" d="
  M 198.96 387.50
  Q 196.48 387.92 194.04 387.25
  L 194.02 355.80
  Q 194.02 355.19 194.63 355.15
  L 198.61 354.94
  A 0.64 0.64 0.0 0 1 199.28 355.59
  L 198.96 387.50
  Z"
/>
<path fill="#393f3f" d="
  M 194.04 387.25
  Q 196.48 387.92 198.96 387.50
  L 199.30 391.82
  Q 199.33 392.25 199.77 392.25
  L 228.96 392.25
  Q 229.42 392.25 229.47 391.79
  L 229.79 388.75
  Q 235.26 389.36 240.76 389.67
  C 244.59 389.88 247.85 390.79 251.52 391.64
  A 0.78 0.77 40.3 0 1 251.64 393.11
  Q 246.35 395.30 240.68 395.67
  Q 233.27 396.15 233.18 396.16
  Q 224.58 397.14 220.57 397.10
  C 201.31 396.94 182.38 398.08 163.51 396.41
  C 157.13 395.84 148.63 395.96 142.87 393.40
  A 1.07 1.07 0.0 0 1 143.09 391.37
  Q 153.28 389.35 163.46 388.75
  L 163.61 391.69
  Q 163.64 392.25 164.20 392.25
  L 193.49 392.25
  Q 193.98 392.25 193.99 391.76
  L 194.04 387.25
  Z"
/>
</svg>
